# xmcd
#
# Track frame offsets:
#	150
#	12225
#	21855
#	35910
#	44483
#	54646
#	64314
#	75999
#	88374
#	100479
#	111632
#	122995
#
# Disc length: 1791 seconds
#
# Revision: 1
# Processed by: cddbd v1.5.2PL0 Copyright (c) Steve Scherf et al.
# Submitted via: audiograbber 1.83.01
#
DISCID=af06fd0c
DTITLE=Kitty Wells - Country Music Time
DYEAR=1964
DGENRE=Country
TTITLE0=I've Though Of Leaving Too
TTITLE1=Begging To You
TTITLE2=B.J. The D.J.
TTITLE3=Old Records
TTITLE4=As Usual
TTITLE5=Going Through The Motions Of Living
TTITLE6=Gonna Find Me A Bluebird
TTITLE7=This White Circle
TTITLE8=A Wound Time Can't Erase
TTITLE9=Password
TTITLE10=(I Didn't Have To) Break Up Someone's Home
TTITLE11=Before This Day Ends
EXTD=This CD was made from one of my L's
EXTT0=
EXTT1=
EXTT2=
EXTT3=
EXTT4=
EXTT5=
EXTT6=
EXTT7=
EXTT8=
EXTT9=
EXTT10=
EXTT11=
PLAYORDER=
